<mxfile host="app.diagrams.net" modified="2024-05-26T19:29:20.378Z" agent="Mozilla/5.0 (X11; Linux x86_64; rv:126.0) Gecko/20100101 Firefox/126.0" version="22.1.18" etag="tvdaTA4Dhv5UF1kXSw1v" type="github">
  <diagram name="Page-1" id="8OCjPmAAvrotScXLnHog">
    <mxGraphModel>
      <root>
        <mxCell id="0" />
        <mxCell id="1" parent="0" />
      </root>
    </mxGraphModel>
  </diagram>
</mxfile>
